# Simplified collision proxies for SM_IndustrialStaircase
o UCX_SM_IndustrialStaircase_00
v 1.831508 -1.910000 3.008564
v 1.592896 -1.910000 3.304308
v -1.831508 -1.910000 0.541436
v -1.592896 -1.910000 0.245692
v -1.831508 1.910000 0.541436
v 1.592896 1.910000 3.304308
v 1.831508 1.910000 3.008564
v -1.592896 1.910000 0.245692
v -1.592896 1.910000 0.245692
v 1.831508 1.910000 3.008564
v 1.831508 -1.910000 3.008564
v -1.592896 -1.910000 0.245692
v 1.831508 1.910000 3.008564
v 1.592896 1.910000 3.304308
v 1.592896 -1.910000 3.304308
v 1.831508 -1.910000 3.008564
v 1.592896 1.910000 3.304308
v -1.831508 1.910000 0.541436
v -1.831508 -1.910000 0.541436
v 1.592896 -1.910000 3.304308
v -1.831508 1.910000 0.541436
v -1.592896 1.910000 0.245692
v -1.592896 -1.910000 0.245692
v -1.831508 -1.910000 0.541436
f 1 2 3 4
f 5 6 7 8
f 9 10 11 12
f 13 14 15 16
f 17 18 19 20
f 21 22 23 24
o UCX_SM_IndustrialStaircase_01
v 2.650000 -2.000000 3.500000
v 2.650000 -2.000000 3.680000
v 2.110000 -2.000000 3.680000
v 2.110000 -2.000000 3.500000
v 2.110000 2.000000 3.680000
v 2.650000 2.000000 3.680000
v 2.650000 2.000000 3.500000
v 2.110000 2.000000 3.500000
v 2.110000 2.000000 3.500000
v 2.650000 2.000000 3.500000
v 2.650000 -2.000000 3.500000
v 2.110000 -2.000000 3.500000
v 2.650000 2.000000 3.500000
v 2.650000 2.000000 3.680000
v 2.650000 -2.000000 3.680000
v 2.650000 -2.000000 3.500000
v 2.650000 2.000000 3.680000
v 2.110000 2.000000 3.680000
v 2.110000 -2.000000 3.680000
v 2.650000 -2.000000 3.680000
v 2.110000 2.000000 3.680000
v 2.110000 2.000000 3.500000
v 2.110000 -2.000000 3.500000
v 2.110000 -2.000000 3.680000
f 25 26 27 28
f 29 30 31 32
f 33 34 35 36
f 37 38 39 40
f 41 42 43 44
f 45 46 47 48
